<svg width="721" height="942" viewBox="0 0 721 942" fill="none" xmlns="http://www.w3.org/2000/svg">
<path d="M76.6266 446.312C34.8164 386.601 49.328 304.302 109.039 262.492L730.676 -172.783L882.084 43.4503L260.447 478.725C200.736 520.535 118.437 506.024 76.6266 446.312V446.312Z" fill="#4F4772"/>
<path d="M94.3428 746.874C61.5149 699.991 72.9089 635.372 119.792 602.544L852.241 89.6782L971.121 259.457L238.672 772.323C191.789 805.151 127.171 793.757 94.3428 746.874V746.874Z" fill="#443D5E"/>
<path d="M364.276 567.864C331.448 520.981 342.842 456.363 389.725 423.535L852.241 99.6781L971.121 269.457L508.606 593.314C461.723 626.142 397.104 614.748 364.276 567.864V567.864Z" fill="#433C5D"/>
<rect x="580" y="543.67" width="184" height="25" rx="12.5" transform="rotate(-35 580 543.67)" fill="#443D5E"/>
<rect x="335" y="714.67" width="184" height="25" rx="12.5" transform="rotate(-35 335 714.67)" fill="#443D5E"/>
<rect x="124" y="567.629" width="96.9865" height="18.388" rx="9.19401" transform="rotate(-35 124 567.629)" fill="#443D5E"/>
<rect x="139.684" y="205.185" width="107.81" height="20.44" rx="10.22" transform="rotate(-35 139.684 205.185)" fill="#584F7B"/>
<rect x="112" y="222.452" width="19.9659" height="20.7157" rx="9.98297" transform="rotate(-35 112 222.452)" fill="#584F7B"/>
<rect x="370.136" y="280" width="9" height="49.6896" rx="4.5" transform="rotate(45 370.136 280)" fill="#746B9C"/>
<rect x="335" y="286" width="9" height="49.6896" rx="4.5" transform="rotate(-45 335 286)" fill="#746B9C"/>
<rect width="7" height="26.7147" rx="3.5" transform="matrix(0.705891 0.70832 -0.705891 0.70832 252.858 565)" fill="#342E49"/>
<rect width="7" height="26.7147" rx="3.5" transform="matrix(0.705891 -0.70832 0.705891 0.70832 234 570)" fill="#342E49"/>
<mask id="path-13-inside-1_212_4" fill="white">
<path fill-rule="evenodd" clip-rule="evenodd" d="M228.08 288.64C224.523 288.029 220.696 288.12 216.776 288.786C208.936 290.12 200.416 293.652 191.436 298.932C187.916 301.001 184.317 303.425 180.682 306.023C177.975 302.628 175.249 299.408 172.508 296.53C165.361 289.027 158.183 283.323 151.037 279.924C143.891 276.525 136.455 275.423 129.847 278.019C123.24 280.615 118.68 286.427 115.967 293.699C113.255 300.971 112.159 309.926 112.378 320.151C112.454 323.703 112.75 327.458 113.149 331.298C109.507 331.848 105.958 332.464 102.64 333.227C92.6262 335.53 84.1496 338.769 77.6914 343.124C71.2333 347.48 66.6456 353.216 65.6653 360.074C64.685 366.933 67.4885 373.681 72.4754 379.619C77.4623 385.556 84.7014 390.976 93.682 395.903C96.8639 397.649 100.342 399.306 103.947 400.916C101.891 405.655 100.111 410.284 98.7165 414.713C95.6372 424.49 94.1865 433.398 94.7567 441.141C95.3269 448.884 98.0781 455.742 103.73 460.05C109.382 464.357 116.874 465.306 124.713 463.972C132.553 462.639 141.063 459.114 150.043 453.834C153.53 451.784 157.103 449.389 160.704 446.82C163.459 450.286 166.233 453.571 169.024 456.502C176.171 464.005 183.359 469.701 190.505 473.1C197.651 476.499 205.087 477.601 211.695 475.005C218.303 472.409 222.854 466.596 225.566 459.324C228.279 452.052 229.373 443.106 229.154 432.881C229.055 428.233 228.643 423.286 227.991 418.156C232.035 417.576 235.963 416.911 239.618 416.071C249.632 413.768 258.109 410.52 264.567 406.164C271.026 401.809 275.612 396.082 276.592 389.223C277.573 382.364 274.77 375.608 269.784 369.67C264.797 363.733 257.556 358.322 248.576 353.394C245.557 351.738 242.269 350.162 238.868 348.627C240.339 345.023 241.696 341.469 242.771 338.055C245.851 328.277 247.303 319.361 246.732 311.618C246.162 303.875 243.401 297.024 237.749 292.717C234.923 290.563 231.637 289.251 228.08 288.64ZM226.36 297.673C228.594 298.043 230.433 298.827 231.937 299.974C234.947 302.268 236.854 306.186 237.301 312.263C237.749 318.34 236.565 326.304 233.721 335.336C232.747 338.428 231.51 341.678 230.158 344.995C221.097 341.5 211.057 338.449 200.245 335.977C195.809 327.796 191.128 320.255 186.291 313.47C189.712 311.021 193.087 308.755 196.339 306.843C204.635 301.965 212.264 298.921 218.416 297.874C221.493 297.351 224.126 297.303 226.36 297.673ZM139.379 285.68C141.643 285.93 144.166 286.689 146.985 288.03C152.622 290.711 159.115 295.705 165.727 302.648C168.265 305.313 170.815 308.346 173.365 311.55C166.764 316.804 160.095 322.837 153.491 329.56C142.449 329.03 131.983 329.257 122.338 330.175C121.972 326.64 121.692 323.198 121.623 319.978C121.42 310.517 122.521 302.541 124.661 296.804C126.801 291.067 129.756 287.793 133.325 286.391C135.109 285.69 137.114 285.429 139.379 285.68ZM178.971 319.016C182.139 323.491 185.254 328.341 188.291 333.515C184.673 332.864 181.002 332.268 177.26 331.751C173.444 331.223 169.677 330.795 165.946 330.436C170.317 326.282 174.67 322.462 178.971 319.016ZM175.971 340.772C182.204 341.633 188.243 342.722 194.092 343.961C197.345 350.214 200.455 356.802 203.328 363.716C205.852 369.791 208.061 375.814 210.01 381.73C206.439 386.958 202.566 392.218 198.379 397.445C194.694 402.046 190.913 406.377 187.106 410.531C180.353 410.152 173.394 409.499 166.288 408.517C159.011 407.511 151.985 406.214 145.244 404.701C142.791 399.75 140.413 394.641 138.197 389.306C135.644 383.161 133.408 377.067 131.444 371.086C135.025 365.839 138.9 360.558 143.101 355.313C147.776 349.476 152.596 344.02 157.449 338.915C163.484 339.309 169.666 339.9 175.971 340.772ZM205.731 346.708C213.156 348.671 220.067 350.927 226.451 353.37C223.597 359.359 220.25 365.563 216.362 371.905C214.973 368.076 213.518 364.226 211.907 360.346C209.953 355.645 207.864 351.131 205.731 346.708ZM145.197 338.414C141.975 342.02 138.782 345.721 135.652 349.63C132.981 352.965 130.455 356.314 128.019 359.661C126.079 352.555 124.61 345.723 123.554 339.231C130.326 338.603 137.561 338.306 145.197 338.414ZM235.18 356.997C238.292 358.404 241.287 359.837 244.009 361.331C252.288 365.873 258.649 370.776 262.56 375.433C266.472 380.09 267.87 384.209 267.336 387.944C266.802 391.679 264.304 395.259 259.239 398.675C254.173 402.092 246.684 405.081 237.452 407.204C234.08 407.979 230.408 408.598 226.605 409.139C225.121 400.922 222.966 392.266 220.203 383.352C226.128 374.375 231.144 365.517 235.18 356.997ZM114.349 340.343C115.821 349.534 118.126 359.309 121.254 369.438C116.066 377.303 111.545 385.084 107.798 392.623C104.419 391.117 101.178 389.574 98.2487 387.967C89.97 383.424 83.6087 378.521 79.6972 373.864C75.7857 369.207 74.3879 365.088 74.9217 361.353C75.4554 357.619 77.9537 354.038 83.0191 350.622C88.0846 347.206 95.5739 344.216 104.805 342.094C107.793 341.407 111.02 340.847 114.349 340.343ZM174.062 354.129C161.459 352.387 149.708 361.014 147.952 373.296C146.197 385.579 155.075 397.056 167.677 398.798C180.28 400.54 192.031 391.913 193.787 379.63C195.542 367.348 186.664 355.87 174.062 354.129ZM125.092 380.911C126.501 384.808 127.986 388.727 129.627 392.677C130.911 395.767 132.241 398.786 133.605 401.758C127.569 400.076 121.868 398.214 116.552 396.208C119.045 391.234 121.909 386.109 125.092 380.911ZM213.448 393.121C215.058 398.995 216.375 404.706 217.382 410.178C211.692 410.661 205.673 410.9 199.381 410.875C201.553 408.357 203.71 405.784 205.838 403.128C208.502 399.801 211.017 396.46 213.448 393.121ZM112.671 404.515C120.693 407.576 129.474 410.29 138.871 412.566C143.953 422.417 149.431 431.394 155.097 439.364C151.707 441.787 148.37 444.039 145.147 445.933C136.852 450.811 129.215 453.846 123.062 454.892C116.91 455.939 112.551 455.086 109.541 452.792C106.532 450.498 104.634 446.581 104.186 440.504C103.739 434.427 104.912 426.471 107.757 417.439C109.047 413.342 110.722 408.995 112.671 404.515ZM218.792 419.216C219.417 424.08 219.809 428.729 219.902 433.043C220.104 442.505 219.003 450.481 216.863 456.218C214.723 461.955 211.785 465.24 208.216 466.642C204.648 468.044 200.177 467.673 194.54 464.992C188.902 462.311 182.41 457.317 175.797 450.374C173.212 447.66 170.618 444.566 168.021 441.292C175.75 435.146 183.585 427.966 191.282 419.827C200.976 420.196 210.201 419.979 218.792 419.216ZM150.7 415.135C155.37 416.035 160.114 416.863 164.999 417.538C169.722 418.191 174.358 418.67 178.948 419.065C173.415 424.547 167.871 429.459 162.425 433.819C158.417 428.141 154.475 421.908 150.7 415.135Z"/>
</mask>
<path fill-rule="evenodd" clip-rule="evenodd" d="M228.08 288.64C224.523 288.029 220.696 288.12 216.776 288.786C208.936 290.12 200.416 293.652 191.436 298.932C187.916 301.001 184.317 303.425 180.682 306.023C177.975 302.628 175.249 299.408 172.508 296.53C165.361 289.027 158.183 283.323 151.037 279.924C143.891 276.525 136.455 275.423 129.847 278.019C123.24 280.615 118.68 286.427 115.967 293.699C113.255 300.971 112.159 309.926 112.378 320.151C112.454 323.703 112.75 327.458 113.149 331.298C109.507 331.848 105.958 332.464 102.64 333.227C92.6262 335.53 84.1496 338.769 77.6914 343.124C71.2333 347.48 66.6456 353.216 65.6653 360.074C64.685 366.933 67.4885 373.681 72.4754 379.619C77.4623 385.556 84.7014 390.976 93.682 395.903C96.8639 397.649 100.342 399.306 103.947 400.916C101.891 405.655 100.111 410.284 98.7165 414.713C95.6372 424.49 94.1865 433.398 94.7567 441.141C95.3269 448.884 98.0781 455.742 103.73 460.05C109.382 464.357 116.874 465.306 124.713 463.972C132.553 462.639 141.063 459.114 150.043 453.834C153.53 451.784 157.103 449.389 160.704 446.82C163.459 450.286 166.233 453.571 169.024 456.502C176.171 464.005 183.359 469.701 190.505 473.1C197.651 476.499 205.087 477.601 211.695 475.005C218.303 472.409 222.854 466.596 225.566 459.324C228.279 452.052 229.373 443.106 229.154 432.881C229.055 428.233 228.643 423.286 227.991 418.156C232.035 417.576 235.963 416.911 239.618 416.071C249.632 413.768 258.109 410.52 264.567 406.164C271.026 401.809 275.612 396.082 276.592 389.223C277.573 382.364 274.77 375.608 269.784 369.67C264.797 363.733 257.556 358.322 248.576 353.394C245.557 351.738 242.269 350.162 238.868 348.627C240.339 345.023 241.696 341.469 242.771 338.055C245.851 328.277 247.303 319.361 246.732 311.618C246.162 303.875 243.401 297.024 237.749 292.717C234.923 290.563 231.637 289.251 228.08 288.64ZM226.36 297.673C228.594 298.043 230.433 298.827 231.937 299.974C234.947 302.268 236.854 306.186 237.301 312.263C237.749 318.34 236.565 326.304 233.721 335.336C232.747 338.428 231.51 341.678 230.158 344.995C221.097 341.5 211.057 338.449 200.245 335.977C195.809 327.796 191.128 320.255 186.291 313.47C189.712 311.021 193.087 308.755 196.339 306.843C204.635 301.965 212.264 298.921 218.416 297.874C221.493 297.351 224.126 297.303 226.36 297.673ZM139.379 285.68C141.643 285.93 144.166 286.689 146.985 288.03C152.622 290.711 159.115 295.705 165.727 302.648C168.265 305.313 170.815 308.346 173.365 311.55C166.764 316.804 160.095 322.837 153.491 329.56C142.449 329.03 131.983 329.257 122.338 330.175C121.972 326.64 121.692 323.198 121.623 319.978C121.42 310.517 122.521 302.541 124.661 296.804C126.801 291.067 129.756 287.793 133.325 286.391C135.109 285.69 137.114 285.429 139.379 285.68ZM178.971 319.016C182.139 323.491 185.254 328.341 188.291 333.515C184.673 332.864 181.002 332.268 177.26 331.751C173.444 331.223 169.677 330.795 165.946 330.436C170.317 326.282 174.67 322.462 178.971 319.016ZM175.971 340.772C182.204 341.633 188.243 342.722 194.092 343.961C197.345 350.214 200.455 356.802 203.328 363.716C205.852 369.791 208.061 375.814 210.01 381.73C206.439 386.958 202.566 392.218 198.379 397.445C194.694 402.046 190.913 406.377 187.106 410.531C180.353 410.152 173.394 409.499 166.288 408.517C159.011 407.511 151.985 406.214 145.244 404.701C142.791 399.75 140.413 394.641 138.197 389.306C135.644 383.161 133.408 377.067 131.444 371.086C135.025 365.839 138.9 360.558 143.101 355.313C147.776 349.476 152.596 344.02 157.449 338.915C163.484 339.309 169.666 339.9 175.971 340.772ZM205.731 346.708C213.156 348.671 220.067 350.927 226.451 353.37C223.597 359.359 220.25 365.563 216.362 371.905C214.973 368.076 213.518 364.226 211.907 360.346C209.953 355.645 207.864 351.131 205.731 346.708ZM145.197 338.414C141.975 342.02 138.782 345.721 135.652 349.63C132.981 352.965 130.455 356.314 128.019 359.661C126.079 352.555 124.61 345.723 123.554 339.231C130.326 338.603 137.561 338.306 145.197 338.414ZM235.18 356.997C238.292 358.404 241.287 359.837 244.009 361.331C252.288 365.873 258.649 370.776 262.56 375.433C266.472 380.09 267.87 384.209 267.336 387.944C266.802 391.679 264.304 395.259 259.239 398.675C254.173 402.092 246.684 405.081 237.452 407.204C234.08 407.979 230.408 408.598 226.605 409.139C225.121 400.922 222.966 392.266 220.203 383.352C226.128 374.375 231.144 365.517 235.18 356.997ZM114.349 340.343C115.821 349.534 118.126 359.309 121.254 369.438C116.066 377.303 111.545 385.084 107.798 392.623C104.419 391.117 101.178 389.574 98.2487 387.967C89.97 383.424 83.6087 378.521 79.6972 373.864C75.7857 369.207 74.3879 365.088 74.9217 361.353C75.4554 357.619 77.9537 354.038 83.0191 350.622C88.0846 347.206 95.5739 344.216 104.805 342.094C107.793 341.407 111.02 340.847 114.349 340.343ZM174.062 354.129C161.459 352.387 149.708 361.014 147.952 373.296C146.197 385.579 155.075 397.056 167.677 398.798C180.28 400.54 192.031 391.913 193.787 379.63C195.542 367.348 186.664 355.87 174.062 354.129ZM125.092 380.911C126.501 384.808 127.986 388.727 129.627 392.677C130.911 395.767 132.241 398.786 133.605 401.758C127.569 400.076 121.868 398.214 116.552 396.208C119.045 391.234 121.909 386.109 125.092 380.911ZM213.448 393.121C215.058 398.995 216.375 404.706 217.382 410.178C211.692 410.661 205.673 410.9 199.381 410.875C201.553 408.357 203.71 405.784 205.838 403.128C208.502 399.801 211.017 396.46 213.448 393.121ZM112.671 404.515C120.693 407.576 129.474 410.29 138.871 412.566C143.953 422.417 149.431 431.394 155.097 439.364C151.707 441.787 148.37 444.039 145.147 445.933C136.852 450.811 129.215 453.846 123.062 454.892C116.91 455.939 112.551 455.086 109.541 452.792C106.532 450.498 104.634 446.581 104.186 440.504C103.739 434.427 104.912 426.471 107.757 417.439C109.047 413.342 110.722 408.995 112.671 404.515ZM218.792 419.216C219.417 424.08 219.809 428.729 219.902 433.043C220.104 442.505 219.003 450.481 216.863 456.218C214.723 461.955 211.785 465.24 208.216 466.642C204.648 468.044 200.177 467.673 194.54 464.992C188.902 462.311 182.41 457.317 175.797 450.374C173.212 447.66 170.618 444.566 168.021 441.292C175.75 435.146 183.585 427.966 191.282 419.827C200.976 420.196 210.201 419.979 218.792 419.216ZM150.7 415.135C155.37 416.035 160.114 416.863 164.999 417.538C169.722 418.191 174.358 418.67 178.948 419.065C173.415 424.547 167.871 429.459 162.425 433.819C158.417 428.141 154.475 421.908 150.7 415.135Z" fill="#E5E3EC" stroke="#4F4772" stroke-width="4" mask="url(#path-13-inside-1_212_4)"/>
<g clip-path="url(#clip0_212_4)">
<path d="M112.012 716.188L110.962 717.549L112.665 717.789L234.633 734.93L236.336 735.169L235.702 733.571L189.782 617.812L189.134 616.178L188.061 617.57L112.012 716.188ZM190.916 603.497L246.243 742.957L99.2924 722.305L190.916 603.497Z" fill="#E5E3EC" stroke="#4F4772" stroke-width="2"/>
<path d="M108.449 719.047L108.369 719.613L108.815 719.968L167.459 766.748L167.921 767.116L168.467 766.889L237.733 738.087L238.259 737.867L238.339 737.302L248.986 661.547L249.065 660.982L248.619 660.626L189.975 613.847L189.513 613.478L188.968 613.705L119.702 642.508L119.175 642.727L119.095 643.292L108.449 719.047ZM166.898 774.397L101.595 722.305L113.405 638.272L190.537 606.198L255.839 658.29L244.029 742.322L166.898 774.397Z" fill="#E5E3EC" stroke="#4F4772" stroke-width="2"/>
<path d="M186.083 622.917C193.466 623.954 200.293 618.81 201.331 611.427C202.368 604.043 197.224 597.217 189.841 596.179C182.457 595.142 175.631 600.286 174.593 607.669C173.556 615.052 178.7 621.879 186.083 622.917Z" fill="#E5E3EC" stroke="#4F4772" stroke-width="2"/>
<path d="M164.047 779.709C171.431 780.747 178.257 775.603 179.295 768.219C180.332 760.836 175.188 754.009 167.805 752.972C160.422 751.934 153.595 757.078 152.558 764.462C151.52 771.845 156.664 778.671 164.047 779.709Z" fill="#E5E3EC" stroke="#4F4772" stroke-width="2"/>
<path d="M103.828 729.169C111.212 730.207 118.038 725.063 119.076 717.68C120.113 710.296 114.969 703.47 107.586 702.432C100.203 701.395 93.3762 706.539 92.3385 713.922C91.3009 721.305 96.445 728.132 103.828 729.169Z" fill="#E5E3EC" stroke="#4F4772" stroke-width="2"/>
<path d="M235.864 747.726C243.247 748.764 250.074 743.619 251.112 736.236C252.149 728.853 247.005 722.026 239.622 720.989C232.238 719.951 225.412 725.095 224.374 732.478C223.337 739.862 228.481 746.688 235.864 747.726Z" fill="#E5E3EC" stroke="#4F4772" stroke-width="2"/>
<path d="M114.266 654.899C121.65 655.937 128.476 650.793 129.514 643.41C130.551 636.026 125.407 629.2 118.024 628.162C110.641 627.125 103.814 632.269 102.777 639.652C101.739 647.035 106.883 653.862 114.266 654.899Z" fill="#E5E3EC" stroke="#4F4772" stroke-width="2"/>
<path d="M246.441 672.466C253.278 673.426 259.598 668.663 260.559 661.827C261.52 654.991 256.757 648.67 249.921 647.709C243.084 646.748 236.763 651.511 235.803 658.348C234.842 665.184 239.605 671.505 246.441 672.466Z" fill="#E5E3EC"/>
</g>
<circle cx="424.5" cy="765.5" r="2.5" fill="#E5E3EC"/>
<circle cx="424.5" cy="830.5" r="2.5" fill="#E5E3EC"/>
<circle cx="424.5" cy="895.5" r="2.5" fill="#E5E3EC"/>
<circle cx="489.5" cy="765.5" r="2.5" fill="#E5E3EC"/>
<circle cx="489.5" cy="830.5" r="2.5" fill="#E5E3EC"/>
<circle cx="489.5" cy="895.5" r="2.5" fill="#E5E3EC"/>
<circle cx="554.5" cy="765.5" r="2.5" fill="#E5E3EC"/>
<circle cx="554.5" cy="830.5" r="2.5" fill="#E5E3EC"/>
<circle cx="554.5" cy="895.5" r="2.5" fill="#E5E3EC"/>
<circle cx="619.5" cy="765.5" r="2.5" fill="#E5E3EC"/>
<circle cx="619.5" cy="830.5" r="2.5" fill="#E5E3EC"/>
<circle cx="619.5" cy="895.5" r="2.5" fill="#E5E3EC"/>
<circle cx="684.5" cy="765.5" r="2.5" fill="#E5E3EC"/>
<circle cx="684.5" cy="830.5" r="2.5" fill="#E5E3EC"/>
<circle cx="684.5" cy="895.5" r="2.5" fill="#E5E3EC"/>
<defs>
<clipPath id="clip0_212_4">
<rect width="200" height="200" fill="white" transform="translate(91.8346 575) rotate(8)"/>
</clipPath>
</defs>
</svg>
