  <svg width="60" height="60" viewBox="0 0 60 60" fill="none" xmlns="http://www.w3.org/2000/svg">
<rect width="60" height="60" rx="16" fill="#443D5E"/>
<path d="M35.6426 25.328C35.5119 25.1973 35.2692 25.02 34.9146 24.796C34.5786 24.572 34.1586 24.3573 33.6546 24.152C33.1692 23.9467 32.6372 23.7693 32.0586 23.62C31.4799 23.452 30.8919 23.368 30.2946 23.368C29.2492 23.368 28.4559 23.564 27.9146 23.956C27.3919 24.348 27.1306 24.8987 27.1306 25.608C27.1306 26.1493 27.2986 26.5787 27.6346 26.896C27.9706 27.2133 28.4746 27.484 29.1466 27.708C29.8186 27.932 30.6586 28.1747 31.6666 28.436C32.9732 28.7533 34.1026 29.1453 35.0546 29.612C36.0252 30.06 36.7626 30.6573 37.2666 31.404C37.7892 32.132 38.0506 33.1027 38.0506 34.316C38.0506 35.38 37.8546 36.2947 37.4626 37.06C37.0706 37.8067 36.5292 38.4133 35.8386 38.88C35.1479 39.3467 34.3639 39.692 33.4866 39.916C32.6092 40.1213 31.6759 40.224 30.6866 40.224C29.6972 40.224 28.7079 40.1213 27.7186 39.916C26.7292 39.7107 25.7772 39.4213 24.8626 39.048C23.9479 38.656 23.1079 38.1893 22.3426 37.648L24.0506 34.316C24.2186 34.484 24.5172 34.708 24.9466 34.988C25.3759 35.2493 25.8986 35.52 26.5146 35.8C27.1306 36.0613 27.8026 36.2853 28.5306 36.472C29.2586 36.6587 29.9959 36.752 30.7426 36.752C31.7879 36.752 32.5812 36.5747 33.1226 36.22C33.6639 35.8653 33.9346 35.3613 33.9346 34.708C33.9346 34.1107 33.7199 33.644 33.2906 33.308C32.8612 32.972 32.2639 32.6827 31.4986 32.44C30.7332 32.1787 29.8279 31.8987 28.7826 31.6C27.5319 31.2453 26.4866 30.8533 25.6466 30.424C24.8066 29.976 24.1812 29.416 23.7706 28.744C23.3599 28.072 23.1546 27.232 23.1546 26.224C23.1546 24.8613 23.4719 23.7227 24.1066 22.808C24.7599 21.8747 25.6372 21.1747 26.7386 20.708C27.8399 20.2227 29.0626 19.98 30.4066 19.98C31.3399 19.98 32.2172 20.0827 33.0386 20.288C33.8786 20.4933 34.6626 20.764 35.3906 21.1C36.1186 21.436 36.7719 21.8 37.3506 22.192L35.6426 25.328Z" fill="white"/>
</svg>
